<mxfile host="app.diagrams.net" modified="2023-11-02T02:07:48.317Z" agent="Mozilla/5.0 (Windows NT 10.0; Win64; x64; rv:109.0) Gecko/20100101 Firefox/118.0" etag="LQB05-Bt0uvqHV4gFDnZ" version="22.0.8" type="github">
  <diagram name="Page-1" id="jb0FgnaRLJ-JZPEQqRK1">
    <mxGraphModel dx="880" dy="442" grid="1" gridSize="10" guides="1" tooltips="1" connect="1" arrows="1" fold="1" page="1" pageScale="1" pageWidth="850" pageHeight="1100" math="0" shadow="0">
      <root>
        <mxCell id="0" />
        <mxCell id="1" parent="0" />
        <mxCell id="_nwrD3qCeMUMXJAYAal_-5" style="edgeStyle=orthogonalEdgeStyle;rounded=0;orthogonalLoop=1;jettySize=auto;html=1;exitX=0.5;exitY=1;exitDx=0;exitDy=0;" edge="1" parent="1" source="_nwrD3qCeMUMXJAYAal_-1" target="_nwrD3qCeMUMXJAYAal_-2">
          <mxGeometry relative="1" as="geometry" />
        </mxCell>
        <mxCell id="_nwrD3qCeMUMXJAYAal_-1" value="star" style="rounded=1;whiteSpace=wrap;html=1;" vertex="1" parent="1">
          <mxGeometry x="305" y="90" width="120" height="60" as="geometry" />
        </mxCell>
        <mxCell id="_nwrD3qCeMUMXJAYAal_-6" style="edgeStyle=orthogonalEdgeStyle;rounded=0;orthogonalLoop=1;jettySize=auto;html=1;exitX=0.5;exitY=1;exitDx=0;exitDy=0;" edge="1" parent="1" source="_nwrD3qCeMUMXJAYAal_-2" target="_nwrD3qCeMUMXJAYAal_-4">
          <mxGeometry relative="1" as="geometry" />
        </mxCell>
        <mxCell id="_nwrD3qCeMUMXJAYAal_-2" value="&lt;div&gt;L segitiga&lt;/div&gt;&lt;div&gt;a&lt;/div&gt;&lt;div&gt;t&lt;br&gt;&lt;/div&gt;" style="shape=parallelogram;perimeter=parallelogramPerimeter;whiteSpace=wrap;html=1;fixedSize=1;" vertex="1" parent="1">
          <mxGeometry x="305" y="190" width="120" height="60" as="geometry" />
        </mxCell>
        <mxCell id="_nwrD3qCeMUMXJAYAal_-3" style="edgeStyle=orthogonalEdgeStyle;rounded=0;orthogonalLoop=1;jettySize=auto;html=1;exitX=0.5;exitY=1;exitDx=0;exitDy=0;" edge="1" parent="1" source="_nwrD3qCeMUMXJAYAal_-1" target="_nwrD3qCeMUMXJAYAal_-1">
          <mxGeometry relative="1" as="geometry" />
        </mxCell>
        <mxCell id="_nwrD3qCeMUMXJAYAal_-4" value="&lt;div&gt;L segitiga 1/2 x a x t&lt;br&gt;&lt;/div&gt;" style="rounded=0;whiteSpace=wrap;html=1;" vertex="1" parent="1">
          <mxGeometry x="305" y="290" width="120" height="60" as="geometry" />
        </mxCell>
        <mxCell id="_nwrD3qCeMUMXJAYAal_-16" style="edgeStyle=orthogonalEdgeStyle;rounded=0;orthogonalLoop=1;jettySize=auto;html=1;exitX=0.5;exitY=1;exitDx=0;exitDy=0;" edge="1" parent="1" source="_nwrD3qCeMUMXJAYAal_-9" target="_nwrD3qCeMUMXJAYAal_-10">
          <mxGeometry relative="1" as="geometry">
            <Array as="points">
              <mxPoint x="365" y="440" />
            </Array>
          </mxGeometry>
        </mxCell>
        <mxCell id="_nwrD3qCeMUMXJAYAal_-9" value="L segi tigas" style="shape=parallelogram;perimeter=parallelogramPerimeter;whiteSpace=wrap;html=1;fixedSize=1;" vertex="1" parent="1">
          <mxGeometry x="300" y="380" width="120" height="60" as="geometry" />
        </mxCell>
        <mxCell id="_nwrD3qCeMUMXJAYAal_-10" value="end" style="rounded=1;whiteSpace=wrap;html=1;" vertex="1" parent="1">
          <mxGeometry x="305" y="470" width="120" height="60" as="geometry" />
        </mxCell>
        <mxCell id="_nwrD3qCeMUMXJAYAal_-15" style="edgeStyle=orthogonalEdgeStyle;rounded=0;orthogonalLoop=1;jettySize=auto;html=1;exitX=0.5;exitY=1;exitDx=0;exitDy=0;entryX=0.558;entryY=0;entryDx=0;entryDy=0;entryPerimeter=0;" edge="1" parent="1" source="_nwrD3qCeMUMXJAYAal_-4" target="_nwrD3qCeMUMXJAYAal_-9">
          <mxGeometry relative="1" as="geometry" />
        </mxCell>
      </root>
    </mxGraphModel>
  </diagram>
</mxfile>
